<svg xmlns="http://www.w3.org/2000/svg" viewBox="0 0 459.7 459.76"><defs><style>.cls-1{fill:#6ab6d2;}</style></defs><title>Ресурс 1</title><g id="Слой_2" data-name="Слой 2"><g id="Слой_1-2" data-name="Слой 1"><path class="cls-1" d="M292.63,355.13a17.16,17.16,0,0,1-14.75-8.33l-59.63-99A17.2,17.2,0,1,1,247.72,230l59.63,99a17.19,17.19,0,0,1-14.72,26.07Z"/><path class="cls-1" d="M248.56,120.32H166.93a17.21,17.21,0,0,0,0,34.41h81.63a17.21,17.21,0,0,1,17.2,17.2v29.94a17.21,17.21,0,0,1-17.2,17.2H168.8a17.21,17.21,0,1,0,0,34.41h79.76a51.67,51.67,0,0,0,51.61-51.61V171.93A51.67,51.67,0,0,0,248.56,120.32Zm-80.2,22.23a4.69,4.69,0,1,1,4.69-4.69A4.69,4.69,0,0,1,168.36,142.55Zm0,101.37a4.69,4.69,0,1,1,4.69-4.69A4.69,4.69,0,0,1,168.36,243.92Zm114.39-52.09a4.69,4.69,0,1,1,4.69-4.69A4.69,4.69,0,0,1,282.75,191.83Z"/><path class="cls-1" d="M168.75,219.29a17.21,17.21,0,0,0-17.2,17.21V338.3a17.21,17.21,0,0,0,34.41,0V236.5A17.22,17.22,0,0,0,168.75,219.29ZM168.36,343a4.69,4.69,0,1,1,4.69-4.69A4.69,4.69,0,0,1,168.36,343Zm0-99.07a4.69,4.69,0,1,1,4.69-4.69A4.69,4.69,0,0,1,168.36,243.92Z"/><path class="cls-1" d="M162.5,161.84V202A6.26,6.26,0,1,0,175,202V161.84Z"/><path class="cls-1" d="M96.78,57.11A211.82,211.82,0,0,1,371.66,72.27a6.81,6.81,0,0,0,9.42-9.83A225.46,225.46,0,0,0,88.51,46.28C-1.23,114.84-26.4,240.18,30,337.84L41.76,331C-11.2,239.28,12.45,121.52,96.78,57.11Z"/><path class="cls-1" d="M411.65,83.07a15.88,15.88,0,0,0-25.25,19.28c67.84,88.82,50.78,216.27-38,284.11s-216.27,50.79-284.11-38A15.89,15.89,0,1,0,39,367.72c78.48,102.74,225.91,122.47,328.64,44S490.13,185.8,411.65,83.07ZM397,96.74a4.69,4.69,0,1,1,6.58.88A4.69,4.69,0,0,1,397,96.74ZM48.61,362.86a4.69,4.69,0,1,1,6.57.88A4.7,4.7,0,0,1,48.61,362.86Z"/></g></g></svg>